# AST/ASF file generated using VICON BodyLanguage
# -----------------------------------------------
:version 1.10
:name VICON
:units
  mass 1.0
  length 0.45
  angle deg
:documentation
   .ast/.asf automatically generated from VICON data using
   VICON BodyBuilder and BodyLanguage model FoxedUp or BRILLIANT.MOD
:root
   order TX TY TZ RX RY RZ
   axis XYZ
   position 0 0 0  
   orientation 0 0 0 
:bonedata
  begin
     id 1 
     name lhipjoint
     direction 0.635376 -0.686425 0.353719 
     length 2.47244 
     axis 0 0 0  XYZ
  end
  begin
     id 2 
     name lfemur
     direction 0.34202 -0.939693 0  
     length 7.25268  
     axis 0 0 20  XYZ
    dof rx ry rz
    limits (-160.0 20.0)
           (-70.0 70.0)
           (-60.0 70.0)
  end
  begin
     id 3 
     name ltibia
     direction 0.34202 -0.939693 0   
     length 7.6767   
     axis 0 0 20   XYZ
    dof rx
    limits (-10.0 170.0)
  end
  begin
     id 4 
     name lfoot
     direction 0.0803374 -0.220725 0.972022   
     length 2.22945   
     axis -90 7.62852e-016 20   XYZ
    dof rx rz
    limits (-45.0 90.0)
           (-70.0 20.0)
  end
  begin
     id 5 
     name ltoes
     direction 1.53579e-011 -4.21994e-011 1   
     length 1.11848   
     axis -90 7.62852e-016 20   XYZ
    dof rx
    limits (-90.0 20.0)
  end
  begin
     id 6 
     name rhipjoint
     direction -0.664428 -0.664335 0.342336   
     length 2.55466  
     axis 0 0 0  XYZ 
  end
  begin
     id 7 
     name rfemur
     direction -0.34202 -0.939693 0   
     length 6.83172   
     axis 0 0 -20   XYZ
    dof rx ry rz
    limits (-160.0 20.0)
           (-70.0 70.0)
           (-70.0 60.0)
  end
  begin
     id 8 
     name rtibia
     direction -0.34202 -0.939693 0   
     length 7.62692   
     axis 0 0 -20   XYZ
    dof rx
    limits (-10.0 170.0)
 end
 begin
     id 9 
     name rfoot
     direction -0.0949276 -0.260811 0.960711   
     length 2.19684  
     axis -90 -7.62852e-016 -20   XYZ
    dof rx rz
    limits (-45.0 90.0)
           (-20.0 70.0)
  end
  begin
     id 10 
     name rtoes
     direction -1.53543e-011 -4.2183e-011 1   
     length 1.09848   
     axis -90 -7.62852e-016 -20   XYZ
    dof rx
    limits (-90.0 20.0)
  end
  begin
     id 11 
     name lowerback
     direction 0.0118782 0.999815 -0.0151555   
     length 2.15772   
     axis 0 0 0   XYZ
    dof rx ry rz
    limits (-20.0 45.0)
           (-30.0 30.0)
           (-30.0 30.0)
  end
  begin
     id 12 
     name upperback
     direction 0.00130825 0.999065 0.0432113   
     length 2.14863   
     axis 0 0 0   XYZ
    dof rx ry rz
    limits (-20.0 45.0)
           (-30.0 30.0)
           (-30.0 30.0)
  end
  begin
     id 13 
     name thorax
     direction -0.00347005 0.998773 0.0494011   
     length 2.14936   
     axis 0 0 0   XYZ
    dof rx ry rz
    limits (-20.0 45.0)
           (-30.0 30.0)
           (-30.0 30.0)
  end
  begin
     id 14 
     name lowerneck
     direction -0.0262159 0.99424 0.103921   
     length 1.69373   
     axis 0 0 0   XYZ
    dof rx ry rz
    limits (-20.0 45.0)
           (-30.0 30.0)
           (-30.0 30.0)
  end
  begin
     id 15 
     name upperneck
     direction 0.0353511 0.977394 -0.20845   
     length 1.70857   
     axis 0 0 0   XYZ
    dof rx ry rz
    limits (-20.0 45.0)
           (-30.0 30.0)
           (-30.0 30.0)
  end
  begin
     id 16
     name head
     direction 0.0139214 0.996594 -0.0812836  
     length 1.72777  
     axis 0 0 0   XYZ
    dof rx ry rz
    limits (-20.0 45.0)
           (-30.0 30.0)
           (-30.0 30.0)
  end
  begin
     id 17 
     name lclavicle
     direction 0.841247 0.537205 -0.0609508  
     length 3.55371  
     axis 0 0 0   XYZ
    dof ry rz
    limits (-20.0 10.0)
           (0.0 20.0)
  end
  begin
     id 18 
     name lhumerus
     direction 1 -4.48964e-011 1.60116e-018   
     length 4.91377   
     axis -180 -30 -90   XYZ
    dof rx ry rz
    limits (-60.0 90.0)
           (-90.0 90.0)
           (-90.0 90.0)
  end
  begin
     id 19
     name lradius
     direction 1 -4.48989e-011 -8.93847e-027   
     length 3.00291   
     axis -180 -30 -90   XYZ
    dof rx
    limits (-10.0 170.0)
  end
  begin
     id 20
     name lwrist
     direction 1 -4.48932e-011 -7.31504e-027   
     length 1.50145   
     axis 5.74121e-015 90 90   XYZ
    dof ry
    limits (-180.0 0.0)
 end
  begin
     id 21 
     name lhand
     direction 1 -4.48971e-011 -1.46301e-026   
     length 0.450922   
     axis 9.33524e-015 90 90   XYZ
    dof rx rz
    limits (-90.0 90.0)
           (-45.0 45.0)
  end
  begin
     id 22 
     name lfingers
     direction 1 -4.49039e-011 -2.92602e-026   
     length 0.363545   
     axis 1.86705e-014 90 90   XYZ
    dof rx
    limits (0.0 90.0)
  end
  begin
     id 23
     name lthumb
     direction 0.707107 -6.34941e-011 0.707107   
     length 0.52198   
     axis -90 45 2.85299e-015   XYZ
    dof rx rz
    limits (-45.0 45.0)
           (-45.0 45.0)
  end
  begin
     id 24 
     name rclavicle
     direction -0.825079 0.56158 -0.0622297   
     length 3.39909  
     axis 0 0 0   XYZ 
    dof ry rz
    limits (-10.0 20.0)
           (-20.0 0.0)
  end
  begin
     id 25 
     name rhumerus
     direction -1 -4.48965e-011 1.61691e-027  
     length 4.86725   
     axis -180 30 90   XYZ
    dof rx ry rz
    limits (-90.0 60.0)
           (-90.0 90.0)
           (-90.0 90.0)
  end
  begin
     id 26 
     name rradius
     direction -1 -4.48964e-011 -2.25776e-027   
     length 3.17144   
     axis -180 30 90   XYZ
    dof rx
    limits (-10.0 170.0)
  end
  begin
     id 27 
     name rwrist
     direction -1 -4.48961e-011 -7.31504e-027   
     length 1.58572   
     axis 5.74121e-015 -90 -90   XYZ
    dof ry
    limits (-180.0 0.0)
  end
  begin
     id 28
     name rhand
     direction -1 -4.49013e-011 -1.46301e-026   
     length 0.419368   
     axis 9.33524e-015 -90 -90   XYZ
    dof rx rz
    limits (-90.0 90.0)
           (-45.0 45.0)
  end
  begin
     id 29
     name rfingers
     direction -1 -4.489e-011 -2.92602e-026   
     length 0.338105   
     axis 1.86705e-014 -90 -90   XYZ
    dof rx
    limits (0.0 90.0)
  end
  begin
     id 30
     name rthumb
     direction -0.707107 -6.35022e-011 0.707107   
     length 0.485453   
     axis -90 -45 -2.85299e-015   XYZ
    dof rx rz
    limits (-45.0 45.0)
           (-45.0 45.0)
  end
:hierarchy
  begin
    root lhipjoint rhipjoint lowerback
    lhipjoint lfemur
    lfemur ltibia
    ltibia lfoot
    lfoot ltoes
    rhipjoint rfemur
    rfemur rtibia
    rtibia rfoot
    rfoot rtoes
    lowerback upperback
    upperback thorax
    thorax lowerneck lclavicle rclavicle
    lowerneck upperneck
    upperneck head
    lclavicle lhumerus
    lhumerus lradius
    lradius lwrist
    lwrist lhand lthumb
    lhand lfingers
    rclavicle rhumerus
    rhumerus rradius
    rradius rwrist
    rwrist rhand rthumb
    rhand rfingers
  end

#!OML:ASF H:\Swim 2\Project 1\Capture day 1\Session 1\male.ASF
:FULLY-SPECIFIED
:DEGREES
337
root 7.58061 10.0951 12.8131 102.196 -1.96739 4.18385
lowerback -10.663 -1.12971 2.95578
upperback -3.87642 -1.81996 -1.00307
thorax 1.80993 -0.951183 -2.92191
lowerneck -14.8715 -0.138795 -4.35403
upperneck 39.96 0.406348 2.16635
head 17.0334 -0.189494 1.83784
rclavicle -5.81445e-015 1.65667e-015
rhumerus 102.164 -26.9523 -31.9892
rradius 37.0399
rwrist -4.2689
rhand -39.0711 -4.86514
rfingers 7.12502
rthumb -12.0722 -34.4969
lclavicle -5.81445e-015 1.65667e-015
lhumerus 117.045 10.2777 79.7292
lradius 15.7105
lwrist -70.8385
lhand -53.5598 4.06475
lfingers 7.12502
lthumb -26.0019 32.3057
rfemur -26.974 -3.92021 22.0103
rtibia 53.0475
rfoot 16.2398 -4.08997
rtoes 18.9134
lfemur -29.5279 -1.79052 -24.333
ltibia 51.8452
lfoot 12.7975 1.95433
ltoes 15.9371
338
root 7.5855 10.1114 12.7827 102.016 -1.96356 4.05223
lowerback -10.4593 -1.11688 3.02966
upperback -3.97452 -1.80238 -1.07842
thorax 1.59258 -0.949101 -3.03175
lowerneck -15.125 -0.135664 -4.34548
upperneck 39.8333 0.432501 2.13743
head 17.0274 -0.180088 1.82711
rclavicle -4.96962e-016 -1.19193e-014
rhumerus 101.608 -27.3616 -31.6682
rradius 37.4346
rwrist -4.72501
rhand -38.9385 -4.40539
rfingers 7.12502
rthumb -11.9444 -34.0446
lclavicle -4.96962e-016 -1.19193e-014
lhumerus 116.31 11.9491 77.1083
lradius 15.9388
lwrist -67.5557
lhand -54.0488 3.737
lfingers 7.12502
lthumb -26.47 31.9083
rfemur -26.9052 -4.23312 22.1137
rtibia 54.7752
rfoot 16.5204 -3.73176
rtoes 19.3427
lfemur -29.2943 -1.32649 -24.4059
ltibia 53.9788
lfoot 12.7058 1.58516
ltoes 15.0123
339
root 7.59072 10.1259 12.7552 101.855 -1.97409 3.93438
lowerback -10.2641 -1.12465 3.11111
upperback -4.07638 -1.81375 -1.15467
thorax 1.37356 -0.96228 -3.15025
lowerneck -15.4031 -0.121875 -4.38154
upperneck 39.669 0.480172 2.13252
head 17.006 -0.165223 1.83837
rclavicle -1.60022e-014 -1.31198e-014
rhumerus 101.078 -27.7564 -31.3731
rradius 37.7648
rwrist -5.27013
rhand -38.8886 -3.81423
rfingers 7.12502
rthumb -11.8962 -33.4563
lclavicle -1.60022e-014 -1.31198e-014
lhumerus 115.191 14.1016 73.6047
lradius 16.2613
lwrist -62.9922
lhand -54.492 2.88623
lfingers 7.12502
lthumb -26.8942 30.993
rfemur -26.8687 -4.53184 22.1894
rtibia 56.5109
rfoot 16.849 -3.40151
rtoes 19.8124
lfemur -29.0634 -0.925945 -24.4694
ltibia 56.0998
lfoot 12.7341 1.17673
ltoes 14.0381
340
root 7.59563 10.1386 12.7306 101.68 -1.99837 3.80831
lowerback -10.054 -1.14602 3.18603
upperback -4.16728 -1.84248 -1.2286
thorax 1.15659 -0.984315 -3.26412
lowerneck -15.7081 -0.0965839 -4.46039
upperneck 39.462 0.550695 2.15105
head 16.9667 -0.143877 1.87117
rclavicle -2.88238e-015 -7.95139e-015
rhumerus 100.592 -28.1331 -31.1154
rradius 37.9935
rwrist -5.74444
rhand -38.925 -3.11492
rfingers 7.12502
rthumb -11.9314 -32.7549
lclavicle -2.88238e-015 -7.95139e-015
lhumerus 113.511 16.7637 68.9555
lradius 16.7666
lwrist -56.5487
lhand -54.7775 1.47294
lfingers 7.12502
lthumb -27.1673 29.5373
rfemur -26.837 -4.79913 22.2361
rtibia 58.2637
rfoot 17.166 -3.15901
rtoes 20.1042
lfemur -28.7941 -0.561928 -24.5265
ltibia 58.1905
lfoot 12.8583 0.73672
ltoes 13.0851
341
root 7.60149 10.1493 12.7088 101.538 -2.046 3.71669
lowerback -9.87424 -1.19148 3.26079
upperback -4.26209 -1.90501 -1.29707
thorax 0.949438 -1.02379 -3.37627
lowerneck -16.0283 -0.0513304 -4.58949
upperneck 39.2 0.65588 2.19943
head 16.8994 -0.111145 1.93136
rclavicle 9.74045e-015 3.87009e-015
rhumerus 100.201 -28.4555 -30.967
rradius 38.0731
rwrist -5.92704
rhand -39.0424 -2.33315
rfingers 7.12502
rthumb -12.0445 -31.9665
lclavicle 9.74045e-015 3.87009e-015
lhumerus 111.396 19.4738 63.8292
lradius 17.4457
lwrist -49.1324
lhand -54.9467 -0.356855
lfingers 7.12502
lthumb -27.3292 27.6821
rfemur -26.8693 -5.0878 22.2538
rtibia 60.0431
rfoot 17.5176 -3.00568
rtoes 20.3765
lfemur -28.5452 -0.280598 -24.5858
ltibia 60.2443
lfoot 13.0478 0.250162
ltoes 12.2753
342
root 7.60774 10.1581 12.6896 101.397 -2.10994 3.63421
lowerback -9.69772 -1.24545 3.32155
upperback -4.35118 -1.97802 -1.35663
thorax 0.749591 -1.0684 -3.47205
lowerneck -16.36 0.0138187 -4.76885
upperneck 38.8853 0.789922 2.29324
head 16.8046 -0.066801 2.02467
rclavicle 1.03368e-014 3.49116e-015
rhumerus 99.8967 -28.7249 -30.9373
rradius 37.9869
rwrist -5.67838
rhand -39.2264 -1.51027
rfingers 7.12502
rthumb -12.222 -31.1332
lclavicle 1.03368e-014 3.49116e-015
lhumerus 109.074 21.8821 58.8309
lradius 18.26
lwrist -41.4967
lhand -54.9962 -2.23837
lfingers 7.12502
lthumb -27.3765 25.7931
rfemur -26.9328 -5.37643 22.2448
rtibia 61.8474
rfoot 17.8741 -2.95615
rtoes 20.5921
lfemur -28.2807 -0.0497479 -24.6453
ltibia 62.2553
lfoot 13.2296 -0.22717
ltoes 11.3163
